<svg xmlns="http://www.w3.org/2000/svg" xmlns:xlink="http://www.w3.org/1999/xlink" viewBox="76.2 6.3 302.9 202.6" role="img" aria-label="Tom Falk Plumbing, Heating and Cooling">
<defs>
<path id="font_1_143" d="M.04600525 0V.68800356H.28500367C.32967124 .68800356 .3653361 .6786702 .3919983 .66000369 .41867066 .6413371 .43767295 .6153361 .44900514 .58200076 .4603373 .54866537 .46600343 .5096639 .46600343 .46499635 .46600343 .41833497 .45966593 .37750245 .44699098 .34249879 .43432618 .30749513 .4146627 .27999369 .3880005 .2599945 .3613383 .23999532 .327006 .22999573 .28500367 .22999573H.19900513V0H.04600525M.19900513 .35699464H.25300599C.274999 .35699464 .29032899 .36649577 .29899598 .38549806 .30766297 .40450035 .31199647 .42900086 .31199647 .45899964 .31199647 .48166404 .3101603 .50049337 .30648805 .5154877 .30282594 .5304921 .29649354 .54166159 .28749085 .548996 .27849833 .5563304 .26600138 .55999758 .25 .55999758H.19900513V.35699464Z"/>
<path id="font_1_93" d="M.04600525 0V.68800356H.19900513V.13200379H.40299989V0H.04600525Z"/>
<path id="font_1_167" d="M.24899292-.011993408C.20632935-.011993408 .16933187-.0048268639 .13800049 .009506226 .106669109 .023839316 .08266703 .04833476 .06599426 .08299255 .049331666 .11766052 .041000368 .16499837 .041000368 .2250061V.68800356H.19400025V.21499634C.19400025 .18366497 .19766744 .15983074 .20500183 .14349365 .21233623 .12716675 .22666931 .119003299 .2480011 .119003299 .27000428 .119003299 .28500367 .12716675 .29299928 .14349365 .30099488 .15983074 .30499269 .18366497 .30499269 .21499634V.68800356H.45799256V.2250061C.45799256 .16499837 .44966126 .11766052 .43299867 .08299255 .41633607 .04833476 .39250184 .023839316 .36149598 .009506226 .33050028-.0048268639 .29299928-.011993408 .24899292-.011993408Z"/>
<path id="font_1_101" d="M.04699707 0V.68800356H.2599945L.31700135 .3789978C.31833396 .368337 .32033286 .35483805 .32299806 .33850099 .32566325 .3221639 .3284963 .30532838 .3314972 .28799439 .33449809 .2706604 .33700053 .25499473 .33900453 .24099732H.34700013C.34900413 .2516683 .35117088 .26483665 .35350038 .28050233 .35582987 .296168 .35832725 .31266786 .36099244 .33000184 .36366783 .34733583 .3660024 .3633372 .36799623 .37800599L.42399598 .68800356H.6340027V0H.4880066V.30099488C.4880066 .32433067 .48850505 .34666444 .48950196 .36799623 .49049888 .389328 .49149577 .4083252 .49249269 .4249878 .49349977 .44166056 .4940033 .45433045 .4940033 .46299745H.48599244C.48465983 .45566307 .48299156 .44666038 .48098756 .43598939 .47899375 .42532859 .4771627 .4146627 .47549439 .4039917 .47383628 .3933309 .47200523 .3840027 .47000123 .37600709L.39900209 0H.27999879L.20899964 .37600709C.20766704 .38267008 .20599874 .39100138 .20399475 .40100099 .20200093 .41100059 .20016988 .42166648 .19850159 .43299867 .1968333 .44433085 .19499715 .45433045 .19299317 .46299745H.18600464C.18733724 .45033265 .1881663 .43466697 .18849182 .41600038 .18882752 .39733378 .18932598 .3780009 .18998719 .3580017 .19065857 .33800254 .19099427 .31900025 .19099427 .30099488V0H.04699707Z"/>
<path id="font_1_29" d="M.04600525 0V.68800356H.27999879C.31733195 .68800356 .34949748 .6815033 .37649537 .6685028 .40350343 .6555023 .42400614 .63683578 .43800355 .61250308 .45200096 .58817037 .45899964 .55833438 .45899964 .522995 .45899964 .49432884 .45466615 .469162 .44599916 .4474945 .43733216 .42582704 .42583213 .40782676 .41149903 .39349366 .39716593 .37916056 .3803304 .36766053 .36099244 .35899354V.35499574C.381663 .34833274 .40016175 .33883158 .41648866 .3264923 .4328257 .3141632 .44599406 .2974955 .45599366 .27648927 .46599327 .25549317 .47099305 .22833252 .47099305 .19500733 .47099305 .15100098 .46199546 .11466471 .44400025 .085998538 .42600505 .057332357 .40067039 .03583272 .36799623 .021499634 .33533225 .0071665446 .29700218 0 .25300599 0H.04600525M.19599915 .1329956H.25700379C.27766419 .1329956 .29299418 .1396637 .30299378 .15299988 .31299339 .16633606 .31799317 .18667095 .31799317 .21400452 .31799317 .22866313 .31582643 .24149068 .31149293 .25248719 .30715943 .26349388 .30065919 .27216087 .2919922 .27848817 .28333537 .28482566 .27200318 .28799439 .2579956 .28799439H.19599915V.1329956M.19599915 .40899659H.2519989C.26533509 .40899659 .27633668 .4123281 .28500367 .4189911 .29367066 .42566429 .30000306 .43499757 .30400086 .44699098 .30799867 .45899455 .30999757 .47333274 .30999757 .4900055 .30999757 .5106659 .30499778 .52749636 .29499818 .5404968 .28499858 .5534973 .2706655 .55999758 .2519989 .55999758H.19599915V.40899659Z"/>
<path id="font_1_73" d="M.04600525 0V.68800356H.19900513V0H.04600525Z"/>
<path id="font_1_102" d="M.04600525 0V.68800356H.19200135L.29400636 .41000367C.29600016 .40400187 .29832969 .39716593 .30099488 .38949586 .30366007 .38183595 .3063253 .3736725 .30899049 .3650055 .31166587 .3563385 .31400047 .3476715 .31599427 .33900453H.32099916C.32033793 .3516693 .32000733 .36416627 .32000733 .37649537 .32000733 .38883464 .32000733 .40000407 .32000733 .41000367V.68800356H.46600343V0H.32000733L.21800232 .27999879C.21466573 .29066978 .21099854 .3028361 .20700073 .3164978 .20300293 .33016969 .19933574 .34433494 .19599915 .35899354H.19099427C.19099427 .34700013 .19099427 .33399964 .19099427 .31999208 .19099427 .30599467 .19099427 .29266358 .19099427 .27999879V0H.04600525Z"/>
<path id="font_1_63" d="M.25700379-.011993408C.18233745-.011993408 .12616985 .017171225 .08850098 .07550049 .05083211 .13382976 .03199768 .22332764 .03199768 .34399415 .03199768 .42533366 .041163129 .49216715 .05949402 .5444946 .07783508 .5968323 .10516866 .63583377 .14149475 .661499 .17783101 .6871643 .22333272 .69999697 .27799989 .69999697 .31400047 .69999697 .3456675 .69466146 .3730011 .6839905 .4003347 .67332968 .42333476 .6571655 .44200135 .63549807 .46066795 .61383059 .47483317 .5868276 .48449708 .55448916 .49416099 .5221608 .49899293 .48466493 .49899293 .44200135H.35099793C.35099793 .46066795 .34999595 .47766624 .34799195 .49299623 .34599815 .50833639 .34216819 .52167257 .33650209 .53300479 .33083598 .544337 .3228353 .55299887 .3125 .5589905 .3021647 .56499227 .28866578 .56799319 .27200318 .56799319 .2560018 .56799319 .24249776 .5646617 .23149109 .55799868 .22049459 .55133566 .21166484 .5411682 .20500183 .52749636 .19833882 .51383468 .19366963 .49650065 .19099427 .47549439 .18832906 .4544983 .18699646 .42933146 .18699646 .3999939V.28599549C.18699646 .24732971 .18966167 .21566265 .19499207 .19099427 .20033264 .16633606 .20933533 .14817302 .22200012 .13650513 .23466492 .12483724 .2516632 .119003299 .272995 .119003299 .29499818 .119003299 .31166587 .12450155 .32299806 .13549805 .33433024 .14649455 .34233094 .16149394 .34700013 .18049622 .3516693 .19949849 .3540039 .22133382 .3540039 .2460022V.25700379H.2630005V.375H.4980011V0H.41700746L.40800477 .06599426C.39933778 .050664266 .38816834 .037165326 .37449647 .025497437 .36083476 .013829549 .34433494 .004664103 .32499696-.0019989014 .30566917-.008661906 .28300477-.011993408 .25700379-.011993408Z"/>
<path id="font_1_619" d=""/>
<path id="font_1_702" d="M.04600525-.20199585V.7250061H.1519928V-.20199585H.04600525Z"/>
<path id="font_1_69" d="M.04600525 0V.68800356H.19900513V.41400147H.30999757V.68800356H.46200563V0H.30999757V.28300477H.19900513V0H.04600525Z"/>
<path id="font_1_42" d="M.04600525 0V.68800356H.42799378V.55599978H.19900513V.4149933H.39300538V.28300477H.19900513V.13200379H.43200685V0H.04600525Z"/>
<path id="font_1_1" d="M0 0 .14700318 .68800356H.35499574L.503006 0H.34199525L.31900025 .1269989H.17900086L.15600586 0H0M.19799805 .25500489H.30000306L.2689972 .43800355C.26833598 .44333396 .26733909 .45033265 .26600648 .45899964 .26467387 .46766664 .26333619 .47749839 .2619934 .48849488 .2606608 .49950157 .25916038 .51033529 .25749208 .5209961 .25583396 .53166708 .2543386 .5416667 .25300599 .5509949H.24499512C.24366252 .53966268 .24216207 .52699789 .24049378 .5130005 .23883565 .49900309 .2370046 .4853363 .23500061 .47200013 .23299663 .45866395 .23132833 .44733177 .22999573 .43800355L.19799805 .25500489Z"/>
<path id="font_1_161" d="M.15499878 0V.5549927H.014007568V.68800356H.44599916V.5549927H.30700685V0H.15499878Z"/>
<path id="font_1_30" d="M.2630005-.011993408C.20766194-.011993408 .16299439 .0006713867 .1289978 .026000977 .09500122 .051330568 .07033285 .09032694 .054992677 .14299011 .039662679 .19566345 .03199768 .2630005 .03199768 .34500123 .03199768 .46632896 .051661176 .55582687 .09098816 .6134949 .13032532 .6711629 .19099427 .69999697 .272995 .69999697 .31833396 .69999697 .3563334 .6904958 .3869934 .67149356 .41766358 .6525014 .44099937 .62217208 .45700074 .5805054 .4730021 .5388387 .4810028 .4833374 .4810028 .41400147H.33299256C.33299256 .44733683 .33132426 .47550456 .32798768 .49850465 .32466126 .5215047 .31799827 .5388336 .30799867 .55049136 .29799906 .56215927 .28333537 .56799319 .26400758 .56799319 .24533081 .56799319 .2301585 .56215927 .2184906 .55049136 .20683289 .5388336 .19866944 .5206706 .19400025 .4960022 .18933106 .47133384 .18699646 .43933106 .18699646 .3999939V.28599549C.18699646 .24732971 .18933106 .21566265 .19400025 .19099427 .19866944 .16633606 .20667012 .14817302 .21800232 .13650513 .22933452 .12483724 .2446696 .119003299 .26400758 .119003299 .28200279 .119003299 .29633079 .124669399 .30699159 .13600159 .31766258 .14733379 .32533265 .16416423 .33000184 .18649292 .33467103 .20883179 .33700563 .2366689 .33700563 .27000428H.47999574C.47999574 .20333354 .47165934 .14916484 .45498658 .10749817 .43832398 .065831508 .4139913 .03549703 .38198854 .016494751 .34999595-.0024973553 .31033326-.011993408 .2630005-.011993408Z"/>
<path id="font_1_111" d="M.272995-.011993408C.21966045-.011993408 .17516072 .00017293294 .13949585 .024505616 .10383097 .0488383 .07699585 .08716837 .05899048 .13949585 .04099528 .1918335 .03199768 .2599996 .03199768 .34399415 .03199768 .42732749 .04099528 .49516297 .05899048 .5475006 .07699585 .59983828 .10383097 .6383362 .13949585 .6629944 .17516072 .6876628 .21966045 .69999697 .272995 .69999697 .32766215 .69999697 .37282817 .6876628 .40849305 .6629944 .4441681 .6383362 .47083537 .59983828 .48849488 .5475006 .50616458 .49516297 .5149994 .42732749 .5149994 .34399415 .5149994 .2599996 .50616458 .1918335 .48849488 .13949585 .47083537 .08716837 .4441681 .0488383 .40849305 .024505616 .37282817 .00017293294 .32766215-.011993408 .272995-.011993408M.272995 .119003299C.29032899 .119003299 .3043264 .122670497 .31498719 .13000489 .32565818 .13733928 .33432517 .14817302 .34098817 .1625061 .34766136 .17683919 .35233055 .19433594 .35499574 .21499634 .35766093 .23566692 .35899354 .25966899 .35899354 .28700257V.40100099C.35899354 .42833457 .35766093 .45233155 .35499574 .47299195 .35233055 .4936625 .34766136 .5109965 .34098817 .5249939 .33432517 .53900149 .32565818 .54966738 .31498719 .5569916 .3043264 .564326 .29032899 .56799319 .272995 .56799319 .2563324 .56799319 .24249776 .564326 .23149109 .5569916 .22049459 .54966738 .21182759 .53900149 .20549011 .5249939 .1991628 .5109965 .1944987 .4936625 .1914978 .47299195 .1884969 .45233155 .18699646 .42833457 .18699646 .40100099V.28700257C.18699646 .25966899 .1884969 .23566692 .1914978 .21499634 .1944987 .19433594 .1991628 .17683919 .20549011 .1625061 .21182759 .14817302 .22049459 .13733928 .23149109 .13000489 .24249776 .122670497 .2563324 .119003299 .272995 .119003299Z"/>
</defs>
<g>



<path transform="matrix(1,0,0,-1,276.112,56.806)" d="M0 0C.01 21.97-17.8 39.78-39.77 39.79-61.74 39.8-79.55 22-79.56 .03-79.57-21.94-61.76-39.76-39.79-39.77-17.82-39.77-.01-21.97 0 0" fill="#ffffff" fill-rule="evenodd"/>
<path transform="matrix(1,0,0,-1,190.936,77.95801)" d="M0 0C-20.79 5.06-55.59-.02-62.21-2.4-62.61-2.57-62.9-2.89-62.9-3.34L-62.82-4.91C-62.74-5.85-65.2-6.3-67.14-7-68-7.33-67.75-8.6-66.81-8.48-62-7.78-57.28-6.75-52.35-5.82-49.1-5.2-46.56-5.03-44.91-4.83-44.58-5.08-45.69-7.38-48.28-11.73-51.53-17.19-56.83-26.65-64.39-40.19-65.3-41.88-66.94-44.8-69.28-48.95-74.17-57.44-76.68-61.84-76.68-62-76.68-63.12-70.85-69.28-69.79-68.79-69.62-68.38-69.49-67.96-69.45-67.51L-68.01-63.61C-67.97-63.57-67.28-62.13-65.91-59.25-60-46.98-41.42-14.44-40.1-12.43L-38.83-10.42C-37.1-7.71-37.27-7.09-39.69-5.49V-5.16C-39.03-4.79-37.88-4.5-36.28-4.26L-34.47-4.01-12.09-4.43C-11.84-4.43-11.59-4.64-11.63-4.88V-5.26C-12.04-5.46-12.29-5.54-12.54-5.62L-13.44-5.78C-13.64-5.83-13.89-5.95-14.18-6.24-14.64-6.64-14.55-7.51-13.89-7.55-12.49-7.59-10.07-7.22-6.66-6.36L-4.23-5.79C-3.45-5.59-2.8-5.17-2.18-4.64-2.18-4.56 0-.36 0-.33-.04-.24 0-.08 0 0M-23.59-31.05-24.79-31.09C-25.49-31.09-25.89-30.39-25.94-29.77-25.97-28.91-25.52-26.2-24.49-25.83-23.31-25.5-22.48-26.94-22.48-26.98-22.28-28.29-22.61-31.01-23.59-31.05M-35.14-44.84C-37.65-46.69-39.99-47.39-42.21-47.11-42.34-46.94-42.45-46.78-42.54-46.44-42.58-46.24-42.17-41.23-39.24-36.1-37.03-32.15-34.15-29.03-30.62-26.65-28.65-25.33-27.49-25.05-27.21-25.83-28.36-27.56-28.85-28.95-28.65-29.89-28.4-31.37-27.37-32.85-25.74-32.85-21.54-32.82-29.35-40.74-35.14-44.84M21.68-31.06C21.48-30.16 18.8-27.77 16.75-28.27 16.3-28.35 13.67-30.32 8.86-34.18L6.96-35.66C6.64-35.91 5.86-35.99 6.03-35.37 7.34-30.44 8.08-27.85 8.08-27.69 8.21-25.43 6.15-23 3.98-23.42 2.95-23.66-.22-26.17-5.52-31.05L-7.29-32.61C-7.53-32.86-8.64-33.77-8.07-32.12-7.94-31.71-7.53-30.32-6.26-27.97L-5.36-26.25C-4.7-25.06-6.38-22.47-9.09-22.34-11.31-25.51-17.06-29.69-19.16-29.57-19.65-29.52-20.14-28.87-19.53-28.59-18.17-28.01-19.81-24.35-21.21-23.33-22.16-22.66-22.2-23.53-23.68-23.81-23.71-23.69-23.71-23.58-23.76-23.45-26.01-15.97-40.85-23.98-45.66-34-48.74-40.37-48.62-45.21-48.45-45.79-47.72-48.46-43.65-51.34-38.11-49.69-33.05-48.22-27.62-43.37-21.79-35.03-20.88-33.76-20.39-33.15-20.35-33.06L-18.05-32C-17.51-31.83-16.7-31.17-15.7-30.72L-13.82-29.69C-13.65-29.57-12.75-29.29-13-30.02-13.53-31.58-15.55-35.24-19.28-40.95-21.09-43.71-21.96-45.14-21.99-45.22-22.04-45.55-22.04-45.79-22-46.04-21.87-46.29-18.55-49.49-18.01-49.45-17.56-48.97-16.53-47.73-14.93-45.67-10.82-40.5-.5-29.95 .77-29.95H1.05C1.3-29.95 1.35-30.19 1.26-30.35 .56-32.74-1.53-36.56-5.07-41.94-6.18-43.62-7.12-45.22-7.9-46.58-6.72-47.9-5.03-49-2.73-49.78-.88-46.75 3.27-42.44 9.68-36.85 12.23-34.63 13.75-33.61 14.32-33.69 14.65-33.81 14.94-34.01 14.77-34.47 13.74-37.63 11.81-42.07 7.42-48.15 6.35-49.55 5.85-50.28 5.85-50.36V-50.86C6.02-51.03 9.88-54.35 10.61-54.27 19.08-44.74 22-32.66 21.68-31.06M63.78-45.62C62.06-45.94 61.19-46.11 61.06-45.82 60.21-43.81 69-33.38 71.35-31.28 73.85-29.07 75.78-28.29 77.22-28.82 77.76-29.07 77.96-30.17 77.88-32.27 77.83-33.71 77.75-34.53 77.67-34.78 76.68-37.81 70.72-44.22 63.78-45.62M52.78-15.34C52.58-15.71 52.33-16.15 52-16.69 49.87-17.07 47.68-17.27 45.42-17.27 24.14-17.26 6.9-.08 6.9 21.12 6.87 42.35 24.09 59.57 45.37 59.6 66.61 59.63 83.85 42.46 83.89 21.22 83.93 12.76 81.18 4.95 76.53-1.41H76.16C64.45-1.41 52.21-2.81 39.23-4.45 37.83-4.65 37.99-5.8 37.71-6.21L36.96-8.35 34.66-9.21C34.17-9.38 32.98-9.66 32.73-10.53 32.57-10.93 32.86-11.23 33.4-11.39 33.93-11.55 35.53-11.47 38.24-11.14L40.79-10.81C41.44-10.78 43.12-10.44 45.97-10.03 52.86-9.01 56.39-8.64 56.39-8.97 55.04-11.76 53.76-13.57 52.78-15.34M62.11-13.45C62.4-13 62.56-12.71 62.64-12.55L62.97-11.85 63.55-10.74C63.79-10.09 63.01-9.87 62.48-9.47L61.99-9.09C61.82-8.97 61.82-8.77 61.99-8.48 62.85-7.91 67.2-7.46 71.23-7.33 68.51-9.75 65.48-11.85 62.11-13.45M105.53-19.42C109.35-15.15 111.74-13.01 112.76-12.89 113.05-12.89 113.42-13.06 113.34-13.54 112.92-16.39 110.71-22.05 104.87-28.17 99.77-33.56 97.06-35.73 96.69-34.83 96.07-33.47 100.35-25.09 105.53-19.42M146.15-52.3C146.11-52.1 146.06-51.97 145.7-51.88 145.49-51.85 145.2-52.01 145.12-52.05L143.02-53.61C140.4-55.54 129.75-57.84 124-46.29 122.73-43.75 122.24-40.46 122.45-36.4 127.29-35.33 136.25-30.89 138.51-29.21 137.65-27.69 135.47-26.74 135.27-26.86L133.01-28.22C127.54-31.55 123.56-33.39 121.05-33.64 120.89-33.44 124.38-26.61 131.49-13.19 132.93-10.56 133.71-9.08 133.92-8.75L135.15-6.53C136.1-4.89 136.38-3.58 136.14-2.55 135.98-1.93 135.11-.53 133.51 1.68 133.3 1.98 132.85 1.93 132.69 1.56 131.21-2.01 127.47-9.36 121.55-20.53 117.81-27.64 115.26-31.87 113.99-33.35 110.08-37.7 97.26-49.94 95.74-50.15 91.92-50.64 93.48-43.49 94.68-41.56 94.84-41.32 95.99-40.2 98.21-38.24 108.15-29.11 113.99-21.52 115.76-15.27 117.65-8.75 115.35-5.33 111.65-7.43 102.2-12.76 94.64-22.91 89.54-38.81 88.72-41.27 88.1-42.75 87.65-43.32 86.09-45.3 76.72-50.43 76.15-48.75 75.86-47.88 77.01-45.5 79.56-41.51 82.11-37.61 83.95-34.86 85.1-33.34L86.55-31.37C86.67-31.25 86.71-31.05 86.55-30.88L85.56-29.93C84.33-28.66 83.47-27.75 83.18-27.83 83.05-27.88 82.77-28.37 82.32-29.03 81.41-30.34 81.04-30.8 80.51-30.88 80.42-30.92 80.17-30.88 80.17-30.75L79.81-28.08C79.69-27.34 79.19-26.6 78.25-25.82 76.48-24.34 73.89-24.22 70.56-25.41L68.27-26.23C66.95-26.68 66.25-26.89 66.13-26.89L55-25.86C54.46-25.81 55.41-24.25 57.46-20.96 58.24-19.73 59.23-18.13 60.17-16.62 60.54-16.49 60.92-16.33 61.24-16.16 66.13-14.1 70.45-11.24 74.19-7.46 74.23-7.41 74.31-7.34 74.35-7.29H74.72L90.25-7.7C90.54-7.75 90.86-7.92 91.07-8.2 91.19-9.02 90.33-9.68 88.44-10.17V-10.5C88.77-10.87 89.43-11.03 90.41-11 93.12-10.83 95.59-10.38 97.77-9.56 100.15-8.65 102.37-6.4 102-4.05 101.91-3.36 101.35-2.87 100.11-2.62 98.75-2.37 85.53-1.34 80.18-1.38 79.9-1.38 79.53-1.41 79.16-1.41 80.6 .76 81.83 3.02 82.86 5.44 84.99 10.45 86.03 15.71 86.07 21.22 86.03 26.72 84.96 31.98 82.82 37.03 80.77 41.88 77.86 46.16 74.13 49.89 70.35 53.63 66.03 56.51 61.19 58.56 56.13 60.71 50.88 61.74 45.37 61.74 39.82 61.74 34.57 60.67 29.55 58.54 24.66 56.48 20.39 53.57 16.6 49.83 12.87 46.09 9.99 41.78 7.93 36.94 5.8 31.92 4.77 26.63 4.77 21.16 4.77 15.65 5.84 10.35 7.97 5.34 10.02 .49 12.93-3.78 16.67-7.52 20.45-11.26 24.76-14.18 29.61-16.19 34.66-18.33 39.93-19.4 45.42-19.36 47.19-19.36 48.88-19.28 50.6-19.08 50.4-19.36 50.19-19.69 50.03-19.98 48.84-21.87 46.49-26.1 46.32-26.1L28.82-25.02C28.46-25.43 28.87-28.06 29.97-28.11L44.23-29.22H44.39C44.19-29.22 40.37-36.49 35.64-44.01 35.4-44.46 22.04-65.78 22.37-66.14L24.5-68.36C26.6-70.87 27.87-72.1 28.48-72.02 29.31-70.38 35.14-60.19 46.04-41.42 47.06-39.65 47.92-38.22 48.54-37.07 50.8-33 52.32-30.09 52.65-29.8 53.31-29.1 53.56-28.97 54.26-28.89 54.75-28.85 56.31-29.02 59.35-29.27 61.41-29.47 63.04-29.67 64.49-29.97 64.61-30.01 64.57-30.25 64.52-30.38 63.21-31.65 61.44-33.79 59.35-36.75 57.58-39.16 55.07-42.7 54.74-44.42 54.09-47.42 57.62-47.79 58.31-48.29 59.75-49.32 62.51-50.47 65.14-48.9L67.44-47.63C67.93-47.3 68.71-46.94 69.78-46.48 70.15-46.32 70.32-46.77 70.23-47.05 68.29-53.06 72.85-53.76 74.17-53.55 76.72-53.14 79.68-51.74 83.13-49.32L85.19-47.85C86.99-46.57 87.9-46.2 87.9-46.73L87.89-49.65C87.89-51.5 90.27-57.25 98.16-52.37 102.72-49.58 107.98-43.62 108.81-42.96L109.63-42.3C109.79-42.15 109.83-42.3 109.75-42.43 109.18-43.78 108.52-45.35 107.53-46.99L106.22-49.12C105.47-50.27 110.32-54.72 110.81-54.67 113.04-48.76 117.52-40.5 117.76-40.17 118.26-39.52 118.75-40.01 118.75-40.83 118.75-49.62 128.36-57.84 136.29-57.39 140.35-57.14 142.61-55.96 145.94-52.96 146.06-52.83 146.23-52.63 146.15-52.3" fill="#090a0f" fill-rule="evenodd"/>
<path transform="matrix(1,0,0,-1,262.214,48.769014)" d="M0 0-.08 14.92-52.21 14.89-52.14-31.95-36.73-31.91-36.81 .01Z" fill="#ba1f31" fill-rule="evenodd"/>
<path transform="matrix(1,0,0,-1,244.878,59.68701)" d="M0 0C0-4.44-3.58-8.02-8.01-8.02-12.45-8.02-16.07-4.44-16.07-.04-16.07 4.4-12.49 7.97-8.05 7.97-3.61 8 0 4.39 0 0" fill="#ba1f31" fill-rule="evenodd"/>
<use data-text="P" xlink:href="#font_1_143" transform="matrix(25.599,-.0031,-.0031,-25.599,85.0453,194.28612)"/>
<use data-text="L" xlink:href="#font_1_93" transform="matrix(25.599,-.0031,-.0031,-25.599,97.20483,194.28464)"/>
<use data-text="U" xlink:href="#font_1_167" transform="matrix(25.599,-.0031,-.0031,-25.599,107.03484,194.28345)"/>
<use data-text="M" xlink:href="#font_1_101" transform="matrix(25.599,-.0031,-.0031,-25.599,119.80875,194.2819)"/>
<use data-text="B" xlink:href="#font_1_29" transform="matrix(25.599,-.0031,-.0031,-25.599,137.21607,194.2798)"/>
<use data-text="I" xlink:href="#font_1_73" transform="matrix(25.599,-.0031,-.0031,-25.599,149.65718,194.27829)"/>
<use data-text="N" xlink:href="#font_1_102" transform="matrix(25.599,-.0031,-.0031,-25.599,155.92894,194.27753)"/>
<use data-text="G" xlink:href="#font_1_63" transform="matrix(25.599,-.0031,-.0031,-25.599,169.03563,194.27594)"/>
<use data-text=" " xlink:href="#font_1_619" transform="matrix(25.599,-.0031,-.0031,-25.599,182.7567,194.27428)"/>
<use data-text="|" xlink:href="#font_1_702" transform="matrix(25.599,-.0031,-.0031,-25.599,185.77738,194.27391)"/>
<use data-text=" " xlink:href="#font_1_619" transform="matrix(25.599,-.0031,-.0031,-25.599,190.84598,194.2733)"/>
<use data-text="H" xlink:href="#font_1_69" transform="matrix(25.599,-.0031,-.0031,-25.599,193.86666,194.27294)"/>
<use data-text="E" xlink:href="#font_1_42" transform="matrix(25.599,-.0031,-.0031,-25.599,206.87094,194.27136)"/>
<use data-text="A" xlink:href="#font_1_1" transform="matrix(25.599,-.0031,-.0031,-25.599,218.54409,194.26995)"/>
<use data-text="T" xlink:href="#font_1_161" transform="matrix(25.599,-.0031,-.0031,-25.599,229.80765,194.26859)"/>
<use data-text="I" xlink:href="#font_1_73" transform="matrix(25.599,-.0031,-.0031,-25.599,241.6088,194.26715)"/>
<use data-text="N" xlink:href="#font_1_102" transform="matrix(25.599,-.0031,-.0031,-25.599,247.88056,194.26639)"/>
<use data-text="G" xlink:href="#font_1_63" transform="matrix(25.599,-.0031,-.0031,-25.599,260.98725,194.2648)"/>
<use data-text=" " xlink:href="#font_1_619" transform="matrix(25.599,-.0031,-.0031,-25.599,274.7083,194.26314)"/>
<use data-text="|" xlink:href="#font_1_702" transform="matrix(25.599,-.0031,-.0031,-25.599,277.729,194.26277)"/>
<use data-text=" " xlink:href="#font_1_619" transform="matrix(25.599,-.0031,-.0031,-25.599,282.7976,194.26216)"/>
<use data-text="C" xlink:href="#font_1_30" transform="matrix(25.599,-.0031,-.0031,-25.599,285.8183,194.2618)"/>
<use data-text="O" xlink:href="#font_1_111" transform="matrix(25.599,-.0031,-.0031,-25.599,298.8226,194.26023)"/>
<use data-text="O" xlink:href="#font_1_111" transform="matrix(25.599,-.0031,-.0031,-25.599,312.82527,194.25853)"/>
<use data-text="L" xlink:href="#font_1_93" transform="matrix(25.599,-.0031,-.0031,-25.599,326.8279,194.25684)"/>
<use data-text="I" xlink:href="#font_1_73" transform="matrix(25.599,-.0031,-.0031,-25.599,337.4259,194.25556)"/>
<use data-text="N" xlink:href="#font_1_102" transform="matrix(25.599,-.0031,-.0031,-25.599,343.69767,194.25479)"/>
<use data-text="G" xlink:href="#font_1_63" transform="matrix(25.599,-.0031,-.0031,-25.599,356.80436,194.2532)"/>
<use data-text=" " xlink:href="#font_1_619" transform="matrix(25.599,-.0031,-.0031,-25.599,370.52543,194.25154)"/>
</g>
</svg>
